<svg xmlns="http://www.w3.org/2000/svg" width="53" height="35.331" viewBox="0 0 53 35.331">
  <path id="Icon_awesome-water" data-name="Icon awesome-water" d="M51.73,37.442A10.629,10.629,0,0,1,46.4,35.334a3.568,3.568,0,0,0-4.436,0c-3.488,2.8-9.866,2.8-13.409-.138a3.415,3.415,0,0,0-4.3.166c-3.5,2.77-9.838,2.761-13.363-.156a3.469,3.469,0,0,0-4.335.184,10.435,10.435,0,0,1-5.31,2.061A1.429,1.429,0,0,0,0,38.9v2.963a1.452,1.452,0,0,0,1.537,1.472,16.54,16.54,0,0,0,7.307-2.384,17.646,17.646,0,0,0,17.67,0,17.646,17.646,0,0,0,17.67,0,17.014,17.014,0,0,0,7.28,2.374A1.452,1.452,0,0,0,53,41.85V38.942A1.477,1.477,0,0,0,51.73,37.442Zm0-13.252A10.629,10.629,0,0,1,46.4,22.082a3.568,3.568,0,0,0-4.436,0c-3.488,2.8-9.866,2.8-13.409-.138a3.415,3.415,0,0,0-4.3.166c-3.5,2.77-9.838,2.761-13.363-.156a3.469,3.469,0,0,0-4.335.184A10.435,10.435,0,0,1,1.252,24.2,1.429,1.429,0,0,0,0,25.644v2.963A1.452,1.452,0,0,0,1.537,30.08,16.54,16.54,0,0,0,8.844,27.7a17.646,17.646,0,0,0,17.67,0,17.646,17.646,0,0,0,17.67,0,17.014,17.014,0,0,0,7.28,2.374A1.452,1.452,0,0,0,53,28.6V25.69a1.477,1.477,0,0,0-1.27-1.5Zm0-13.252A10.713,10.713,0,0,1,46.4,8.83a3.568,3.568,0,0,0-4.436,0c-3.488,2.8-9.866,2.8-13.409-.138a3.415,3.415,0,0,0-4.3.166c-3.5,2.77-9.838,2.761-13.363-.156a3.469,3.469,0,0,0-4.335.184,10.435,10.435,0,0,1-5.31,2.061A1.429,1.429,0,0,0,0,12.391v2.963a1.452,1.452,0,0,0,1.537,1.472,16.54,16.54,0,0,0,7.307-2.384,17.646,17.646,0,0,0,17.67,0,17.646,17.646,0,0,0,17.67,0,17.014,17.014,0,0,0,7.28,2.374A1.452,1.452,0,0,0,53,15.346V12.437a1.477,1.477,0,0,0-1.27-1.5Z" transform="translate(0 -8.006)" fill="#c1dc74"/>
</svg>
