<svg xmlns="http://www.w3.org/2000/svg" width="28.759" height="25.57" viewBox="0 0 28.759 25.57">
  <path id="Icon_awesome-leaf" data-name="Icon awesome-leaf" d="M27.278.483a.777.777,0,0,0-1.413-.06A8.563,8.563,0,0,1,18.38,4.792H14.385A9.59,9.59,0,0,0,4.8,14.379,9.873,9.873,0,0,0,4.873,15.4a23.89,23.89,0,0,1,14.306-4.219.8.8,0,0,1,0,1.6C6.625,12.781,1.3,20.476.124,23.367a1.6,1.6,0,0,0,2.961,1.213,13.137,13.137,0,0,1,3.59-4.524,9.566,9.566,0,0,0,8.733,3.855c7.84-.569,13.357-7.6,13.357-16.209A18.158,18.158,0,0,0,27.278.483Z" transform="translate(-0.007 0.003)" fill="#fff"/>
</svg>
