<svg xmlns="http://www.w3.org/2000/svg" width="53" height="53" viewBox="0 0 53 53">
  <path id="Icon_awesome-temperature-low" data-name="Icon awesome-temperature-low" d="M43.063,0A9.938,9.938,0,1,0,53,9.938,9.953,9.953,0,0,0,43.063,0Zm0,13.25a3.313,3.313,0,1,1,3.313-3.312A3.309,3.309,0,0,1,43.063,13.25ZM26.5,11.594a11.594,11.594,0,0,0-23.187,0V28.829a14.879,14.879,0,1,0,26.5,9.265A14.773,14.773,0,0,0,26.5,28.829ZM14.906,46.375A8.267,8.267,0,0,1,9.938,31.489v-19.9a4.969,4.969,0,0,1,9.938,0v19.9a8.267,8.267,0,0,1-4.969,14.886Zm1.656-12.95V31.469a1.656,1.656,0,0,0-3.312,0v1.956a4.969,4.969,0,1,0,3.313,0Z" fill="#c1dc74"/>
</svg>
