<svg xmlns="http://www.w3.org/2000/svg" width="53" height="73.441" viewBox="0 0 53 73.441">
  <path id="Icon_weather-raindrops" data-name="Icon weather-raindrops" d="M13.212,38.965c0-1.731.866-3.928,2.53-6.725A51.1,51.1,0,0,1,20.6,25.316c.4-.466.932-1.132,1.531-1.864s1-1.132,1.065-1.2l2.464,2.863a38.833,38.833,0,0,1,5.06,7.124c1.531,2.73,2.33,4.927,2.33,6.725a9.645,9.645,0,0,1-2.863,7.058,9.346,9.346,0,0,1-6.991,2.93,9.707,9.707,0,0,1-7.058-2.93A9.817,9.817,0,0,1,13.212,38.965ZM33.986,66.6a18.044,18.044,0,0,1,1.6-6.725,33.322,33.322,0,0,1,3.995-7.058A90.048,90.048,0,0,1,48.3,42.627a20.563,20.563,0,0,0,1.731-1.6l1.665,1.6a87.828,87.828,0,0,1,8.789,10.121,32.406,32.406,0,0,1,4.128,7.191,17.468,17.468,0,0,1,1.6,6.658,15.92,15.92,0,0,1-16.18,16.18A15.917,15.917,0,0,1,33.986,66.6ZM44.106,20.655c0-2.863,2.2-6.658,6.658-11.319L52.429,11.2a26.832,26.832,0,0,1,3.4,4.927,10.049,10.049,0,0,1,1.531,4.528,6.182,6.182,0,0,1-1.931,4.594,6.539,6.539,0,0,1-4.661,1.864,6.377,6.377,0,0,1-6.658-6.459Z" transform="translate(-13.212 -9.336)" fill="#c1dc74"/>
</svg>
