<svg xmlns="http://www.w3.org/2000/svg" width="53.35" height="57.749" viewBox="0 0 53.35 57.749">
  <path id="Icon_metro-water" data-name="Icon metro-water" d="M30.08,27.8c-1.476,11.882-9.012,14-9.012,22.257a9.352,9.352,0,0,0,18.7,0c0-8.261-7.536-10.375-9.012-22.257a.349.349,0,0,0-.679,0ZM12.758,1.81C11.283,13.692,3.746,15.8,3.746,24.067a9.351,9.351,0,0,0,18.7,0c0-8.261-7.536-10.375-9.012-22.257a.347.347,0,0,0-.676,0Zm34.65,0c-1.476,11.882-9.012,14-9.012,22.257a9.351,9.351,0,0,0,18.7,0c0-8.261-7.536-10.375-9.012-22.257a.347.347,0,0,0-.676,0Z" transform="translate(-3.746 -1.544)" fill="#c1dc74"/>
</svg>
