<svg xmlns="http://www.w3.org/2000/svg" width="32.3" height="32.3" viewBox="0 0 32.3 32.3">
  <path id="Icon_awesome-search-location" data-name="Icon awesome-search-location" d="M31.861,27.925l-6.29-6.289a1.513,1.513,0,0,0-1.072-.442H23.47a13.119,13.119,0,1,0-2.271,2.27v1.028a1.513,1.513,0,0,0,.442,1.072l6.29,6.289a1.508,1.508,0,0,0,2.139,0l1.785-1.785a1.52,1.52,0,0,0,.006-2.144ZM13.123,22.2a9.083,9.083,0,1,1,9.084-9.083A9.078,9.078,0,0,1,13.123,22.2Zm0-15.138a4.658,4.658,0,0,0-4.658,4.658c0,2.079,3.045,5.87,4.211,7.246a.583.583,0,0,0,.895,0c1.166-1.376,4.211-5.166,4.211-7.246a4.658,4.658,0,0,0-4.658-4.658Zm0,6.056a1.514,1.514,0,1,1,1.514-1.514A1.514,1.514,0,0,1,13.124,13.122Z" fill="#d9dbdc"/>
</svg>
