<svg xmlns="http://www.w3.org/2000/svg" width="53" height="52.759" viewBox="0 0 53 52.759">
  <path id="Icon_material-wb-sunny" data-name="Icon material-wb-sunny" d="M15.376,11.16,11.04,6.848l-3.4,3.4,4.312,4.312ZM8.727,24.8H1.5v4.818H8.727ZM30.409.825H25.591V7.932h4.818V.825Zm17.948,9.42-3.4-3.4L40.648,11.16l3.4,3.4,4.312-4.312Zm-7.733,33,4.312,4.336,3.4-3.4L44,39.876l-3.373,3.373ZM47.273,24.8v4.818H54.5V24.8ZM28,12.75A14.455,14.455,0,1,0,42.455,27.2,14.466,14.466,0,0,0,28,12.75ZM25.591,53.584h4.818V46.477H25.591ZM7.643,44.165l3.4,3.4,4.312-4.336-3.4-3.4L7.643,44.165Z" transform="translate(-1.5 -0.825)" fill="#c1dc74"/>
</svg>
