<svg xmlns="http://www.w3.org/2000/svg" width="53" height="53.07" viewBox="0 0 53 53.07">
  <path id="Icon_weather-snowflake-cold" data-name="Icon weather-snowflake-cold" d="M8.952,34.808a2.533,2.533,0,0,1,.7-1.758,2.213,2.213,0,0,1,1.688-.739,2.288,2.288,0,0,1,1.723.739,2.472,2.472,0,0,1,.7,1.758,2.31,2.31,0,0,1-.7,1.688,2.377,2.377,0,0,1-3.376,0A2.2,2.2,0,0,1,8.952,34.808Zm6.964,0a2.533,2.533,0,0,1,.7-1.758,2.213,2.213,0,0,1,1.688-.739h11.36l-8.019-8.019a2.09,2.09,0,0,1-.739-1.653,2.437,2.437,0,0,1,4.185-1.723L33.078,28.9V17.61a2.42,2.42,0,0,1,.739-1.758,2.364,2.364,0,0,1,1.758-.739,2.213,2.213,0,0,1,1.688.739,2.472,2.472,0,0,1,.7,1.758V28.97l8.054-8.089a2.324,2.324,0,0,1,1.688-.739,2.4,2.4,0,0,1,1.723.739,2.545,2.545,0,0,1,.633,1.723,2.254,2.254,0,0,1-.633,1.653l-8.019,8.019h11.36a2.193,2.193,0,0,1,1.653.739,2.472,2.472,0,0,1,.7,1.758,2.4,2.4,0,0,1-2.356,2.356H41.413l8.054,8.054a2.254,2.254,0,0,1,.633,1.653,2.545,2.545,0,0,1-.633,1.723,2.4,2.4,0,0,1-1.723.739,2.267,2.267,0,0,1-1.688-.739L38,40.47V51.865a2.39,2.39,0,0,1-.7,1.723,2.31,2.31,0,0,1-1.688.7,2.533,2.533,0,0,1-1.758-.7,2.288,2.288,0,0,1-.739-1.723V40.541L25.13,48.524A2.462,2.462,0,0,1,20.945,46.8a2.14,2.14,0,0,1,.739-1.653l8.089-8.054H18.377a2.31,2.31,0,0,1-1.688-.7A1.8,1.8,0,0,1,15.916,34.808Zm.035,17.022a2.267,2.267,0,0,1,.739-1.688,2.09,2.09,0,0,1,1.653-.739A2.526,2.526,0,0,1,20.8,51.83a2.267,2.267,0,0,1-.739,1.688,2.343,2.343,0,0,1-1.723.739,2.09,2.09,0,0,1-1.653-.739A2.213,2.213,0,0,1,15.951,51.83Zm0-34.149a2.267,2.267,0,0,1,.739-1.688,2.09,2.09,0,0,1,1.653-.739A2.526,2.526,0,0,1,20.8,17.681a2.4,2.4,0,0,1-.739,1.723,2.343,2.343,0,0,1-1.723.739,2.09,2.09,0,0,1-1.653-.739A2.4,2.4,0,0,1,15.951,17.681ZM33.008,58.864a2.193,2.193,0,0,1,.739-1.653,2.472,2.472,0,0,1,1.758-.7A2.4,2.4,0,0,1,37.9,58.864a2.39,2.39,0,0,1-.7,1.723,2.31,2.31,0,0,1-1.688.7,2.533,2.533,0,0,1-1.758-.7A2.235,2.235,0,0,1,33.008,58.864Zm0-48.217a2.288,2.288,0,0,1,.739-1.723,2.472,2.472,0,0,1,1.758-.7,2.31,2.31,0,0,1,1.688.7,2.39,2.39,0,0,1,.7,1.723A2.4,2.4,0,0,1,35.5,13a2.533,2.533,0,0,1-1.758-.7A2.193,2.193,0,0,1,33.008,10.647ZM50.135,51.83a2.267,2.267,0,0,1,.739-1.688,2.09,2.09,0,0,1,1.653-.739,2.526,2.526,0,0,1,2.462,2.427,2.267,2.267,0,0,1-.739,1.688,2.343,2.343,0,0,1-1.723.739,2.09,2.09,0,0,1-1.653-.739A2.213,2.213,0,0,1,50.135,51.83Zm0-34.149a2.267,2.267,0,0,1,.739-1.688,2.09,2.09,0,0,1,1.653-.739,2.526,2.526,0,0,1,2.462,2.427A2.4,2.4,0,0,1,54.25,19.4a2.343,2.343,0,0,1-1.723.739,2.09,2.09,0,0,1-1.653-.739A2.4,2.4,0,0,1,50.135,17.681Zm7.034,17.127a2.533,2.533,0,0,1,.7-1.758,2.288,2.288,0,0,1,1.723-.739,2.193,2.193,0,0,1,1.653.739,2.472,2.472,0,0,1,.7,1.758A2.4,2.4,0,0,1,59.6,37.164a2.39,2.39,0,0,1-1.723-.7A2.289,2.289,0,0,1,57.169,34.808Z" transform="translate(-8.952 -8.22)" fill="#c1dc74"/>
</svg>
